<svg aria-hidden="true" style="position: absolute; width: 0; height: 0; overflow: hidden;" version="1.1" xmlns="http://www.w3.org/2000/svg" xmlns:xlink="http://www.w3.org/1999/xlink">
<defs>
<symbol id="icon-it-4" viewBox="0 0 34 32">
<path d="M30 3.143h-25.714c-0.947 0-1.714 0.767-1.714 1.714v16.571c0 0.947 0.767 1.714 1.714 1.714h6.514l1.029-1.714h-6.971c-0.315 0-0.571-0.256-0.571-0.571v-15.429c0-0.315 0.256-0.571 0.571-0.571h24.571c0.315 0 0.571 0.256 0.571 0.571v15.429c0 0.315-0.256 0.571-0.571 0.571h-13.143c-2.131 0.047-2.286 1.143-2.286 1.143l-0.060-0.060-3.369 5.774h0.053c-0.032 0.090-0.053 0.185-0.053 0.286 0 0.474 0.384 0.857 0.857 0.857h11.429c0.473 0 0.857-0.383 0.857-0.857 0-0.101-0.021-0.196-0.053-0.286h0.053l-2-3.429h-2.19l1.587 2.857h-7.937l2.54-4.571h14.286c0.947 0 1.714-0.767 1.714-1.714v-16.571c0-0.947-0.767-1.714-1.714-1.714zM11.714 9.429c-0.315 0-0.571 0.256-0.571 0.571v6.286c0 0.315 0.256 0.571 0.571 0.571s0.571-0.256 0.571-0.571v-6.286c0-0.315-0.256-0.571-0.571-0.571zM19.143 16.857c0.315 0 0.571-0.256 0.571-0.571v-5.714h3.347c0.361 0 0.653-0.256 0.653-0.571s-0.293-0.571-0.653-0.571h-7.837c-0.361 0-0.653 0.256-0.653 0.571s0.293 0.571 0.653 0.571h3.347v5.714c0 0.315 0.256 0.571 0.571 0.571z"></path>
</symbol>
<symbol id="icon-embed2" viewBox="0 0 40 32">
<path d="M26 23l3 3 10-10-10-10-3 3 7 7z"></path>
<path d="M14 9l-3-3-10 10 10 10 3-3-7-7z"></path>
<path d="M21.916 4.704l2.171 0.592-6 22.001-2.171-0.592 6-22.001z"></path>
</symbol>
<symbol id="icon-mail" viewBox="0 0 32 32">
<path d="M26.666 0h-21.332c-2.934 0-5.334 2.4-5.334 5.333v21.333c0 2.934 2.4 5.334 5.334 5.334h21.332c2.936 0 5.334-2.4 5.334-5.334v-21.333c0-2.934-2.398-5.333-5.334-5.333zM8 8h16c0.286 0 0.563 0.061 0.817 0.177l-8.817 10.286-8.817-10.287c0.254-0.116 0.531-0.177 0.817-0.177zM6 22v-12c0-0.042 0.002-0.084 0.004-0.125l5.864 6.842-5.8 5.8c-0.045-0.167-0.069-0.34-0.069-0.517zM24 24h-16c-0.177 0-0.35-0.024-0.517-0.069l5.691-5.691 2.826 3.297 2.826-3.297 5.691 5.691c-0.167 0.045-0.34 0.069-0.517 0.069zM26 22c0 0.177-0.024 0.35-0.069 0.517l-5.8-5.8 5.864-6.842c0.003 0.041 0.004 0.083 0.004 0.125v12z"></path>
</symbol>
</defs>
</svg>
